<?xml version="1.0" encoding="UTF-8" standalone="no"?>
<svg
   xmlns:dc="http://purl.org/dc/elements/1.1/"
   xmlns:cc="http://creativecommons.org/ns#"
   xmlns:rdf="http://www.w3.org/1999/02/22-rdf-syntax-ns#"
   xmlns:svg="http://www.w3.org/2000/svg"
   xmlns="http://www.w3.org/2000/svg"
   xmlns:sodipodi="http://sodipodi.sourceforge.net/DTD/sodipodi-0.dtd"
   xmlns:inkscape="http://www.inkscape.org/namespaces/inkscape"
   fill="none"
   stroke-linecap="square"
   stroke-miterlimit="10"
   viewBox="0 0 348 348"
   id="svg2"
   version="1.1"
   inkscape:version="0.91 r13725"
   sodipodi:docname="Needy Mrs Bob.svg">
  <metadata
     id="metadata56">
    <rdf:RDF>
      <cc:Work
         rdf:about="">
        <dc:format>image/svg+xml</dc:format>
        <dc:type
           rdf:resource="http://purl.org/dc/dcmitype/StillImage" />
      </cc:Work>
    </rdf:RDF>
  </metadata>
  <defs
     id="defs54" />
  <sodipodi:namedview
     pagecolor="#ffffff"
     bordercolor="#666666"
     borderopacity="1"
     objecttolerance="10"
     gridtolerance="10"
     guidetolerance="10"
     inkscape:pageopacity="0"
     inkscape:pageshadow="2"
     inkscape:window-width="1440"
     inkscape:window-height="785"
     id="namedview52"
     showgrid="false"
     inkscape:zoom="0.67816092"
     inkscape:cx="174"
     inkscape:cy="173.26271"
     inkscape:window-x="0"
     inkscape:window-y="1"
     inkscape:window-maximized="1"
     inkscape:current-layer="svg2" />
  <path
     stroke="#000"
     stroke-linecap="butt"
     stroke-linejoin="round"
     stroke-width="2"
     d="M5.5 5.2h337v337.6H5.5z"
     id="path4" />
  <path
     fill="#000"
     d="M134.3 15h74.3v57h-74.3z"
     id="path6" />
  <path
     fill="#fff"
     d="M155 43.5c0-2.7.3-5 .8-6.6a8.7 8.7 0 0 1 2.5-3.8 6.4 6.4 0 0 1 4.2-1.3c1.2 0 2.3.2 3.2.7 1 .5 1.7 1.2 2.3 2.2.6.9 1 2 1.4 3.4.4 1.3.5 3.1.5 5.4a21 21 0 0 1-.8 6.5c-.5 1.6-1.4 3-2.5 3.8-1 1-2.5 1.4-4.1 1.4-2.2 0-4-.8-5.2-2.4-1.5-2-2.3-5-2.3-9.3zm2.9 0c0 3.7.4 6.2 1.3 7.5.9 1.2 2 1.9 3.3 1.9 1.3 0 2.3-.7 3.2-2 1-1.2 1.4-3.7 1.4-7.4 0-3.8-.5-6.3-1.4-7.5-.9-1.3-2-1.9-3.3-1.9-1.3 0-2.3.5-3 1.6-1 1.4-1.5 4-1.5 7.8zm14.9 0c0-2.7.3-5 .8-6.6a8.7 8.7 0 0 1 2.5-3.8 6.4 6.4 0 0 1 4.2-1.3c1.2 0 2.3.2 3.2.7 1 .5 1.7 1.2 2.3 2.2.6.9 1 2 1.4 3.4.4 1.3.5 3.1.5 5.4 0 2.7-.2 4.8-.8 6.5-.5 1.6-1.4 3-2.5 3.8-1 1-2.5 1.4-4.1 1.4-2.2 0-4-.8-5.2-2.4-1.5-2-2.3-5-2.3-9.3zm2.9 0c0 3.7.4 6.2 1.3 7.5.9 1.2 2 1.9 3.3 1.9 1.3 0 2.3-.7 3.2-2 .9-1.2 1.3-3.7 1.3-7.4 0-3.8-.4-6.3-1.3-7.5-.9-1.3-2-1.9-3.3-1.9-1.3 0-2.3.5-3 1.6-1 1.4-1.5 4-1.5 7.8z"
     id="path8" />
  <path
     stroke="#000"
     stroke-linecap="butt"
     stroke-linejoin="round"
     stroke-width="2"
     d="M15.7 17h110v55h-110z"
     id="path10" />
  <path
     d="M15.7 72l39.7-54"
     id="path12" />
  <path
     stroke="#000"
     stroke-linecap="butt"
     stroke-linejoin="round"
     stroke-width="2"
     d="M15.7 72l39.7-54"
     id="path14" />
  <path
     d="M38 72l39.7-54"
     id="path16" />
  <path
     stroke="#000"
     stroke-linecap="butt"
     stroke-linejoin="round"
     stroke-width="2"
     d="M38 72l39.7-54"
     id="path18" />
  <path
     d="M60.3 72L100 18"
     id="path20" />
  <path
     stroke="#000"
     stroke-linecap="butt"
     stroke-linejoin="round"
     stroke-width="2"
     d="M60.3 72L100 18"
     id="path22" />
  <path
     d="M82.6 72l39.7-54"
     id="path24" />
  <path
     stroke="#000"
     stroke-linecap="butt"
     stroke-linejoin="round"
     stroke-width="2"
     d="M82.6 72l39.7-54m95-2h110v55h-110z"
     id="path26" />
  <path
     d="M217.3 71L257 16.9"
     id="path28" />
  <path
     stroke="#000"
     stroke-linecap="butt"
     stroke-linejoin="round"
     stroke-width="2"
     d="M217.3 71L257 16.9"
     id="path30" />
  <path
     d="M239.6 71l39.7-54.1"
     id="path32" />
  <path
     stroke="#000"
     stroke-linecap="butt"
     stroke-linejoin="round"
     stroke-width="2"
     d="M239.6 71l39.7-54.1"
     id="path34" />
  <path
     d="M262 71l39.6-54.1"
     id="path36" />
  <path
     stroke="#000"
     stroke-linecap="butt"
     stroke-linejoin="round"
     stroke-width="2"
     d="M262 71l39.6-54.1"
     id="path38" />
  <path
     d="M284.2 71L324 16.9"
     id="path40" />
  <path
     stroke="#000"
     stroke-linecap="butt"
     stroke-linejoin="round"
     stroke-width="2"
     d="M284.2 71L324 16.9"
     id="path42" />
  <path
     stroke="#fff"
     stroke-width="3"
     d="M242.5 230.5h30m15 0h30"
     id="path44" />
  <rect
     style="fill:none;fill-rule:evenodd;stroke:#000000;stroke-width:4;stroke-linecap:butt;stroke-linejoin:miter;stroke-opacity:1;stroke-miterlimit:10;stroke-dasharray:none"
     id="rect4184"
     width="327.35593"
     height="203.49153"
     x="10.322034"
     y="134.18645" />
  <g
     style="font-style:normal;font-weight:normal;font-size:40px;line-height:125%;font-family:sans-serif;letter-spacing:0px;word-spacing:0px;fill:#000000;fill-opacity:1;stroke:none;stroke-width:1px;stroke-linecap:butt;stroke-linejoin:miter;stroke-opacity:1"
     id="text4186">
    <path
       d="m 101.32102,155.42697 6.57959,0 4.56543,10.72876 4.59229,-10.72876 6.56616,0 0,20.04761 -4.8877,0 0,-14.66309 -4.61914,10.80933 -3.27636,0 -4.61914,-10.80933 0,14.66309 -4.90113,0 0,-20.04761 z"
       style="font-style:normal;font-variant:normal;font-weight:bold;font-stretch:normal;font-size:27.5px;font-family:sans-serif;-inkscape-font-specification:'sans-serif Bold'"
       id="path4329" />
    <path
       d="m 139.61692,164.53098 q -0.6311,-0.29541 -1.26221,-0.42969 -0.61767,-0.14771 -1.24878,-0.14771 -1.85302,0 -2.8601,1.19507 -0.99366,1.18164 -0.99366,3.39722 l 0,6.92871 -4.80712,0 0,-15.03906 4.80712,0 0,2.4707 q 0.92652,-1.47705 2.12159,-2.14844 1.20849,-0.68481 2.88696,-0.68481 0.2417,0 0.52368,0.0268 0.28198,0.0134 0.81909,0.0806 l 0.0134,4.35059 z"
       style="font-style:normal;font-variant:normal;font-weight:bold;font-stretch:normal;font-size:27.5px;font-family:sans-serif;-inkscape-font-specification:'sans-serif Bold'"
       id="path4331" />
    <path
       d="m 153.78318,160.90549 0,3.65234 q -1.54419,-0.64453 -2.98096,-0.9668 -1.43676,-0.32226 -2.7124,-0.32226 -1.36963,0 -2.04101,0.34912 -0.65796,0.33569 -0.65796,1.04736 0,0.5774 0.49682,0.88623 0.51026,0.30884 1.81275,0.45655 l 0.84594,0.12085 q 3.69263,0.46997 4.96827,1.54419 1.27563,1.07421 1.27563,3.37036 0,2.40356 -1.77246,3.61206 -1.77246,1.20849 -5.29053,1.20849 -1.49048,0 -3.08838,-0.2417 -1.58447,-0.22827 -3.26294,-0.69824 l 0,-3.65234 q 1.43677,0.69824 2.94068,1.04736 1.51733,0.34912 3.07495,0.34912 1.40991,0 2.12158,-0.3894 0.71167,-0.38941 0.71167,-1.15479 0,-0.64453 -0.49683,-0.95337 -0.48339,-0.32226 -1.94702,-0.49682 l -0.84594,-0.10742 q -3.20923,-0.40284 -4.4983,-1.49048 -1.28906,-1.08765 -1.28906,-3.30323 0,-2.39013 1.63819,-3.54492 1.63818,-1.15478 5.02197,-1.15478 1.32934,0 2.79297,0.20141 1.46362,0.20142 3.18237,0.63111 z"
       style="font-style:normal;font-variant:normal;font-weight:bold;font-stretch:normal;font-size:27.5px;font-family:sans-serif;-inkscape-font-specification:'sans-serif Bold'"
       id="path4333" />
    <path
       d="m 176.16721,163.1882 q 1.22193,0 1.85303,-0.53711 0.6311,-0.53711 0.6311,-1.58447 0,-1.03394 -0.6311,-1.57105 -0.6311,-0.55053 -1.85303,-0.55053 l -2.8601,0 0,4.24316 2.8601,0 z m 0.17456,8.76831 q 1.55762,0 2.33643,-0.65796 0.79224,-0.65796 0.79224,-1.9873 0,-1.30249 -0.77881,-1.94702 -0.77881,-0.65796 -2.34986,-0.65796 l -3.03466,0 0,5.25024 3.03466,0 z m 4.80713,-7.21069 q 1.66504,0.4834 2.57813,1.78589 0.91308,1.30249 0.91308,3.1958 0,2.90039 -1.96045,4.32373 -1.96044,1.42334 -5.96191,1.42334 l -8.58032,0 0,-20.04761 7.76123,0 q 4.17602,0 6.04248,1.26221 1.87988,1.26221 1.87988,4.04175 0,1.46362 -0.68481,2.49756 -0.68482,1.0205 -1.98731,1.51733 z"
       style="font-style:normal;font-variant:normal;font-weight:bold;font-stretch:normal;font-size:27.5px;font-family:sans-serif;-inkscape-font-specification:'sans-serif Bold'"
       id="path4335" />
    <path
       d="m 196.02683,163.51047 q -1.5979,0 -2.44385,1.15478 -0.83251,1.14136 -0.83251,3.30323 0,2.16186 0.83251,3.31665 0.84595,1.14135 2.44385,1.14135 1.57105,0 2.40357,-1.14135 0.83252,-1.15479 0.83252,-3.31665 0,-2.16187 -0.83252,-3.30323 -0.83252,-1.15478 -2.40357,-1.15478 z m 0,-3.4375 q 3.88062,0 6.05591,2.09472 2.18872,2.09473 2.18872,5.80079 0,3.70605 -2.18872,5.80078 -2.17529,2.09472 -6.05591,2.09472 -3.89404,0 -6.09619,-2.09472 -2.18872,-2.09473 -2.18872,-5.80078 0,-3.70606 2.18872,-5.80079 2.20215,-2.09472 6.09619,-2.09472 z"
       style="font-style:normal;font-variant:normal;font-weight:bold;font-stretch:normal;font-size:27.5px;font-family:sans-serif;-inkscape-font-specification:'sans-serif Bold'"
       id="path4337" />
    <path
       d="m 215.77903,172.37277 q 1.54419,0 2.34985,-1.12793 0.8191,-1.12793 0.8191,-3.27636 0,-2.14844 -0.8191,-3.27637 -0.80566,-1.12793 -2.34985,-1.12793 -1.54419,0 -2.37671,1.14136 -0.81909,1.12793 -0.81909,3.26294 0,2.13501 0.81909,3.27636 0.83252,1.12793 2.37671,1.12793 z m -3.1958,-9.73511 q 0.99365,-1.31591 2.20215,-1.93359 1.20849,-0.6311 2.77954,-0.6311 2.77954,0 4.56543,2.21557 1.78589,2.20215 1.78589,5.67994 0,3.47778 -1.78589,5.69335 -1.78589,2.20215 -4.56543,2.20215 -1.57105,0 -2.77954,-0.61767 -1.2085,-0.63111 -2.20215,-1.94702 l 0,2.17529 -4.80713,0 0,-20.89356 4.80713,0 0,8.05664 z"
       style="font-style:normal;font-variant:normal;font-weight:bold;font-stretch:normal;font-size:27.5px;font-family:sans-serif;-inkscape-font-specification:'sans-serif Bold'"
       id="path4339" />
  </g>
  <ellipse
     style="fill:#a6a7a7;fill-opacity:1;stroke:#000000;stroke-width:3.5718503;stroke-linejoin:miter;stroke-miterlimit:10;stroke-dasharray:none;stroke-opacity:1"
     id="path4190"
     cx="56.960266"
     cy="187.80508"
     rx="28.30994"
     ry="28.968311" />
  <g
     style="font-style:normal;font-weight:normal;font-size:40px;line-height:125%;font-family:sans-serif;letter-spacing:0px;word-spacing:0px;fill:#ffffff;fill-opacity:1;stroke:none;stroke-width:1px;stroke-linecap:butt;stroke-linejoin:miter;stroke-opacity:1"
     id="text4192">
    <path
       d="m 35.812542,178.8168 6.57959,0 4.565429,10.72876 4.592286,-10.72876 6.566162,0 0,20.04761 -4.887696,0 0,-14.66309 -4.61914,10.80933 -3.276367,0 -4.619141,-10.80933 0,14.66309 -4.901123,0 0,-20.04761 z"
       style="font-style:normal;font-variant:normal;font-weight:bold;font-stretch:normal;font-size:27.5px;font-family:sans-serif;-inkscape-font-specification:'sans-serif Bold';fill:#ffffff;fill-opacity:1"
       id="path4342" />
    <path
       d="m 71.181194,186.57803 q 1.221924,0 1.853028,-0.53711 0.631103,-0.53711 0.631103,-1.58447 0,-1.03393 -0.631103,-1.57104 -0.631104,-0.55054 -1.853028,-0.55054 l -2.860107,0 0,4.24316 2.860107,0 z m 0.174561,8.76831 q 1.557617,0 2.336426,-0.65795 0.792236,-0.65796 0.792236,-1.98731 0,-1.30249 -0.778809,-1.94702 -0.778808,-0.65796 -2.349853,-0.65796 l -3.034668,0 0,5.25024 3.034668,0 z m 4.807129,-7.21069 q 1.665039,0.4834 2.578125,1.78589 0.913086,1.30249 0.913086,3.1958 0,2.90039 -1.96045,4.32373 -1.960449,1.42334 -5.961914,1.42334 l -8.580322,0 0,-20.04761 7.761231,0 q 4.176025,0 6.04248,1.26221 1.879883,1.26221 1.879883,4.04175 0,1.46362 -0.684815,2.49756 -0.684814,1.0205 -1.987304,1.51733 z"
       style="font-style:normal;font-variant:normal;font-weight:bold;font-stretch:normal;font-size:27.5px;font-family:sans-serif;-inkscape-font-specification:'sans-serif Bold';fill:#ffffff;fill-opacity:1"
       id="path4344" />
  </g>
  <g
     style="font-style:normal;font-weight:normal;font-size:40px;line-height:125%;font-family:sans-serif;letter-spacing:0px;word-spacing:0px;fill:#000000;fill-opacity:1;stroke:none;stroke-width:1px;stroke-linecap:butt;stroke-linejoin:miter;stroke-opacity:1"
     id="text4196">
    <path
       d="m 102.23408,193.33517 1.97265,0 0,12.91993 7.09961,0 0,1.66015 -9.07226,0 0,-14.58008 z"
       style="font-size:20px"
       id="path4295" />
    <path
       d="m 117.19501,198.23752 q -1.44531,0 -2.28515,1.13281 -0.83985,1.12305 -0.83985,3.08594 0,1.96289 0.83008,3.0957 0.83985,1.12305 2.29492,1.12305 1.43555,0 2.2754,-1.13281 0.83984,-1.13282 0.83984,-3.08594 0,-1.94336 -0.83984,-3.07617 -0.83985,-1.14258 -2.2754,-1.14258 z m 0,-1.52344 q 2.34375,0 3.68165,1.52344 1.33789,1.52344 1.33789,4.21875 0,2.68555 -1.33789,4.21875 -1.3379,1.52344 -3.68165,1.52344 -2.35351,0 -3.6914,-1.52344 -1.32813,-1.5332 -1.32813,-4.21875 0,-2.69531 1.32813,-4.21875 1.33789,-1.52344 3.6914,-1.52344 z"
       style="font-size:20px"
       id="path4297" />
    <path
       d="m 123.91376,196.97775 1.9043,0 3.41797,9.17969 3.41797,-9.17969 1.9043,0 -4.10157,10.9375 -2.4414,0 -4.10157,-10.9375 z"
       style="font-size:20px"
       id="path4299" />
    <path
       d="m 146.39423,201.99728 0,0.87891 -8.26172,0 q 0.11719,1.85547 1.11329,2.83203 1.00586,0.9668 2.79296,0.9668 1.03516,0 2.00196,-0.25391 0.97656,-0.2539 1.93359,-0.76172 l 0,1.69922 q -0.9668,0.41016 -1.98242,0.625 -1.01563,0.21485 -2.06055,0.21485 -2.61718,0 -4.15039,-1.52344 -1.52344,-1.52344 -1.52344,-4.1211 0,-2.68554 1.44532,-4.25781 1.45508,-1.58203 3.91601,-1.58203 2.20703,0 3.48633,1.42578 1.28906,1.41602 1.28906,3.85742 z m -1.79687,-0.52734 q -0.0195,-1.47461 -0.83008,-2.35352 -0.80078,-0.8789 -2.12891,-0.8789 -1.5039,0 -2.41211,0.84961 -0.89843,0.84961 -1.03515,2.39258 l 6.40625,-0.01 z"
       style="font-size:20px"
       id="path4301" />
    <path
       d="m 160.22236,208.93088 q -0.76172,1.95312 -1.48438,2.54883 -0.72265,0.5957 -1.93359,0.5957 l -1.43555,0 0,-1.50391 1.05469,0 q 0.74219,0 1.15234,-0.35156 0.41016,-0.35156 0.90821,-1.66016 l 0.32226,-0.82031 -4.42383,-10.76172 1.9043,0 3.41797,8.55469 3.41797,-8.55469 1.9043,0 -4.80469,11.95313 z"
       style="font-size:20px"
       id="path4303" />
    <path
       d="m 171.7458,198.23752 q -1.44532,0 -2.28516,1.13281 -0.83984,1.12305 -0.83984,3.08594 0,1.96289 0.83007,3.0957 0.83985,1.12305 2.29493,1.12305 1.43554,0 2.27539,-1.13281 0.83984,-1.13282 0.83984,-3.08594 0,-1.94336 -0.83984,-3.07617 -0.83985,-1.14258 -2.27539,-1.14258 z m 0,-1.52344 q 2.34375,0 3.68164,1.52344 1.33789,1.52344 1.33789,4.21875 0,2.68555 -1.33789,4.21875 -1.33789,1.52344 -3.68164,1.52344 -2.35352,0 -3.69141,-1.52344 -1.32813,-1.5332 -1.32813,-4.21875 0,-2.69531 1.32813,-4.21875 1.33789,-1.52344 3.69141,-1.52344 z"
       style="font-size:20px"
       id="path4305" />
    <path
       d="m 179.54853,203.59885 0,-6.6211 1.79688,0 0,6.55274 q 0,1.55273 0.60546,2.33398 0.60547,0.77149 1.81641,0.77149 1.45508,0 2.29492,-0.92774 0.84961,-0.92773 0.84961,-2.5293 l 0,-6.20117 1.79688,0 0,10.9375 -1.79688,0 0,-1.67968 q -0.6543,0.99609 -1.52344,1.48437 -0.85937,0.47852 -2.00195,0.47852 -1.88476,0 -2.86133,-1.17188 -0.97656,-1.17187 -0.97656,-3.42773 z"
       style="font-size:20px"
       id="path4307" />
    <path
       d="m 193.5622,205.43478 1.98242,0 0,2.48047 -1.98242,0 0,-2.48047 z m 0,-12.09961 1.98242,0 0,6.39649 -0.19531,3.48633 -1.58203,0 -0.20508,-3.48633 0,-6.39649 z"
       style="font-size:20px"
       id="path4309" />
    <path
       d="m 209.529,196.97775 -3.95508,5.32227 4.16016,5.61523 -2.11914,0 -3.1836,-4.29687 -3.18359,4.29687 -2.11914,0 4.24805,-5.72265 -3.88672,-5.21485 2.11914,0 2.90039,3.89649 2.90039,-3.89649 2.11914,0 z"
       style="font-size:20px"
       id="path4311" />
  </g>
  <g
     style="font-style:normal;font-weight:normal;font-size:40px;line-height:125%;font-family:sans-serif;letter-spacing:0px;word-spacing:0px;fill:#000000;fill-opacity:1;stroke:none;stroke-width:1px;stroke-linecap:butt;stroke-linejoin:miter;stroke-opacity:1"
     id="text4200">
    <path
       d="m 247.69171,157.94534 1.97266,0 0,13.56446 q 0,2.63671 -1.00586,3.82812 -0.9961,1.19141 -3.21289,1.19141 l -0.75196,0 0,-1.66016 0.61524,0 q 1.30859,0 1.8457,-0.73242 0.53711,-0.73242 0.53711,-2.62695 l 0,-13.56446 z"
       style="font-size:20px"
       id="path4314" />
    <path
       d="m 253.32648,168.20901 0,-6.62109 1.79687,0 0,6.55274 q 0,1.55273 0.60547,2.33398 0.60547,0.77148 1.81641,0.77148 1.45508,0 2.29492,-0.92773 0.84961,-0.92773 0.84961,-2.5293 l 0,-6.20117 1.79687,0 0,10.9375 -1.79687,0 0,-1.67969 q -0.6543,0.9961 -1.52344,1.48438 -0.85937,0.47851 -2.00195,0.47851 -1.88477,0 -2.86133,-1.17187 -0.97656,-1.17188 -0.97656,-3.42774 z"
       style="font-size:20px"
       id="path4316" />
    <path
       d="m 273.17999,161.91019 0,1.69922 q -0.76172,-0.39063 -1.58203,-0.58594 -0.82031,-0.19531 -1.69922,-0.19531 -1.33789,0 -2.01172,0.41015 -0.66406,0.41016 -0.66406,1.23047 0,0.625 0.47852,0.98633 0.47851,0.35156 1.92383,0.67383 l 0.61523,0.13672 q 1.91406,0.41015 2.71484,1.1621 0.81055,0.74219 0.81055,2.08008 0,1.52344 -1.21094,2.41211 -1.20117,0.88867 -3.31054,0.88867 -0.87891,0 -1.83594,-0.17578 -0.94727,-0.16601 -2.00195,-0.50781 l 0,-1.85547 q 0.99609,0.51758 1.96289,0.78125 0.96679,0.25391 1.91406,0.25391 1.26953,0 1.95312,-0.42969 0.6836,-0.43945 0.6836,-1.23047 0,-0.73242 -0.49805,-1.12305 -0.48828,-0.39062 -2.1582,-0.75195 l -0.625,-0.14648 q -1.66992,-0.35157 -2.41211,-1.07422 -0.74219,-0.73242 -0.74219,-2.00195 0,-1.54297 1.09375,-2.38282 1.09375,-0.83984 3.10547,-0.83984 0.99609,0 1.875,0.14648 0.87891,0.14649 1.62109,0.43946 z"
       style="font-size:20px"
       id="path4318" />
    <path
       d="m 278.41437,158.48245 0,3.10547 3.70117,0 0,1.39649 -3.70117,0 0,5.9375 q 0,1.33789 0.36133,1.71875 0.37109,0.38085 1.49414,0.38085 l 1.8457,0 0,1.50391 -1.8457,0 q -2.08008,0 -2.8711,-0.77148 -0.79101,-0.78125 -0.79101,-2.83203 l 0,-5.9375 -1.31836,0 0,-1.39649 1.31836,0 0,-3.10547 1.80664,0 z"
       style="font-size:20px"
       id="path4320" />
    <path
       d="m 299.94757,165.92386 0,6.60156 -1.79687,0 0,-6.54297 q 0,-1.55273 -0.60547,-2.32422 -0.60547,-0.77148 -1.81641,-0.77148 -1.45508,0 -2.29492,0.92773 -0.83984,0.92774 -0.83984,2.5293 l 0,6.18164 -1.80665,0 0,-10.9375 1.80665,0 0,1.69922 q 0.64453,-0.98633 1.51367,-1.47461 0.8789,-0.48828 2.02148,-0.48828 1.88477,0 2.85156,1.17187 0.9668,1.16211 0.9668,3.42774 z"
       style="font-size:20px"
       id="path4322" />
    <path
       d="m 307.78937,162.84769 q -1.44531,0 -2.28516,1.13281 -0.83984,1.12305 -0.83984,3.08594 0,1.96289 0.83008,3.0957 0.83984,1.12305 2.29492,1.12305 1.43554,0 2.27539,-1.13282 0.83984,-1.13281 0.83984,-3.08593 0,-1.94336 -0.83984,-3.07618 -0.83985,-1.14257 -2.27539,-1.14257 z m 0,-1.52344 q 2.34375,0 3.68164,1.52344 1.33789,1.52343 1.33789,4.21875 0,2.68554 -1.33789,4.21875 -1.33789,1.52343 -3.68164,1.52343 -2.35352,0 -3.69141,-1.52343 -1.32812,-1.53321 -1.32812,-4.21875 0,-2.69532 1.32812,-4.21875 1.33789,-1.52344 3.69141,-1.52344 z"
       style="font-size:20px"
       id="path4324" />
    <path
       d="m 314.73273,161.58792 1.79687,0 2.2461,8.53516 2.23632,-8.53516 2.11914,0 2.2461,8.53516 2.23633,-8.53516 1.79687,0 -2.86133,10.9375 -2.11914,0 -2.35351,-8.96484 -2.36328,8.96484 -2.11914,0 -2.86133,-10.9375 z"
       style="font-size:20px"
       id="path4326" />
  </g>
  <rect
     style="fill:#000000;fill-rule:evenodd;stroke:#000000;stroke-width:1px;stroke-linecap:butt;stroke-linejoin:miter;stroke-opacity:1;fill-opacity:1"
     id="rect4204"
     width="317.03391"
     height="2.9491525"
     x="14.745763"
     y="237.40678" />
  <g
     style="font-style:normal;font-weight:normal;font-size:40px;line-height:125%;font-family:sans-serif;letter-spacing:0px;word-spacing:0px;fill:#000000;fill-opacity:1;stroke:none;stroke-width:1px;stroke-linecap:butt;stroke-linejoin:miter;stroke-opacity:1"
     id="text4206">
    <path
       d="m 115.27244,262.95639 0,4.24316 q -1.65161,-0.73852 -3.22266,-1.1145 -1.57104,-0.37597 -2.96753,-0.37597 -1.85302,0 -2.73926,0.51025 -0.88623,0.51025 -0.88623,1.58447 0,0.80567 0.59082,1.26221 0.60425,0.44311 2.1753,0.76538 l 2.20215,0.44312 q 3.3435,0.67138 4.75341,2.04101 1.40992,1.36963 1.40992,3.89404 0,3.31665 -1.97388,4.94141 -1.96045,1.61133 -6.0022,1.61133 -1.90674,0 -3.8269,-0.36255 -1.92017,-0.36255 -3.84033,-1.07422 l 0,-4.36401 q 1.92016,1.02051 3.70605,1.54419 1.79932,0.51025 3.46436,0.51025 1.69189,0 2.59155,-0.56396 0.89966,-0.56397 0.89966,-1.61133 0,-0.93994 -0.61768,-1.4502 -0.60425,-0.51025 -2.43042,-0.91308 l -2.00073,-0.44312 q -3.00781,-0.64453 -4.4043,-2.05444 -1.38306,-1.40991 -1.38306,-3.80005 0,-2.99439 1.9336,-4.60571 1.93359,-1.61133 5.55908,-1.61133 1.65161,0 3.39722,0.25512 1.7456,0.2417 3.61206,0.73853 z"
       style="font-style:normal;font-variant:normal;font-weight:bold;font-stretch:normal;font-size:27.5px;font-family:sans-serif;-inkscape-font-specification:'sans-serif Bold'"
       id="path4277" />
    <path
       d="m 120.97923,267.33383 4.80712,0 0,15.03906 -4.80712,0 0,-15.03906 z m 0,-5.85449 4.80712,0 0,3.9209 -4.80712,0 0,-3.9209 z"
       style="font-style:normal;font-variant:normal;font-weight:bold;font-stretch:normal;font-size:27.5px;font-family:sans-serif;-inkscape-font-specification:'sans-serif Bold'"
       id="path4279" />
    <path
       d="m 144.37034,269.83139 q 0.91308,-1.39648 2.16186,-2.12158 1.26221,-0.73853 2.76612,-0.73853 2.59155,0 3.94775,1.5979 1.3562,1.5979 1.3562,4.646 l 0,9.15771 -4.83398,0 0,-7.84179 q 0.0134,-0.17456 0.0134,-0.36255 0.0134,-0.18799 0.0134,-0.53711 0,-1.5979 -0.46997,-2.30957 -0.46997,-0.7251 -1.51733,-0.7251 -1.36963,0 -2.12158,1.12793 -0.73853,1.12793 -0.76538,3.26294 l 0,7.38525 -4.83399,0 0,-7.84179 q 0,-2.49756 -0.42969,-3.20923 -0.42968,-0.7251 -1.53076,-0.7251 -1.38305,0 -2.13501,1.14136 -0.75195,1.12793 -0.75195,3.23608 l 0,7.39868 -4.83399,0 0,-15.03906 4.83399,0 0,2.20215 q 0.88623,-1.27563 2.02759,-1.92017 1.15478,-0.64453 2.53784,-0.64453 1.55762,0 2.75268,0.75196 1.19507,0.75195 1.81275,2.10815 z"
       style="font-style:normal;font-variant:normal;font-weight:bold;font-stretch:normal;font-size:27.5px;font-family:sans-serif;-inkscape-font-specification:'sans-serif Bold'"
       id="path4281" />
    <path
       d="m 166.27097,270.40878 q -1.5979,0 -2.44384,1.15479 -0.83252,1.14136 -0.83252,3.30322 0,2.16187 0.83252,3.31665 0.84594,1.14136 2.44384,1.14136 1.57105,0 2.40357,-1.14136 0.83252,-1.15478 0.83252,-3.31665 0,-2.16186 -0.83252,-3.30322 -0.83252,-1.15479 -2.40357,-1.15479 z m 0,-3.4375 q 3.88062,0 6.05591,2.09473 2.18872,2.09473 2.18872,5.80078 0,3.70606 -2.18872,5.80078 -2.17529,2.09473 -6.05591,2.09473 -3.89404,0 -6.09619,-2.09473 -2.18872,-2.09472 -2.18872,-5.80078 0,-3.70605 2.18872,-5.80078 2.20215,-2.09473 6.09619,-2.09473 z"
       style="font-style:normal;font-variant:normal;font-weight:bold;font-stretch:normal;font-size:27.5px;font-family:sans-serif;-inkscape-font-specification:'sans-serif Bold'"
       id="path4283" />
    <path
       d="m 193.13987,273.21518 0,9.15771 -4.83398,0 0,-1.49047 0,-5.5188 q 0,-1.94702 -0.094,-2.68555 -0.0806,-0.73853 -0.29541,-1.08765 -0.28198,-0.46997 -0.76538,-0.72509 -0.4834,-0.26856 -1.10107,-0.26856 -1.50391,0 -2.36329,1.16821 -0.85937,1.15479 -0.85937,3.20923 l 0,7.39868 -4.80713,0 0,-15.03906 4.80713,0 0,2.20215 q 1.08765,-1.31592 2.30957,-1.93359 1.22192,-0.63111 2.69897,-0.63111 2.60499,0 3.94776,1.5979 1.3562,1.5979 1.3562,4.646 z"
       style="font-style:normal;font-variant:normal;font-weight:bold;font-stretch:normal;font-size:27.5px;font-family:sans-serif;-inkscape-font-specification:'sans-serif Bold'"
       id="path4285" />
    <path
       d="m 221.35154,262.95639 0,4.24316 q -1.65161,-0.73852 -3.22266,-1.1145 -1.57104,-0.37597 -2.96753,-0.37597 -1.85302,0 -2.73925,0.51025 -0.88623,0.51025 -0.88623,1.58447 0,0.80567 0.59082,1.26221 0.60424,0.44311 2.17529,0.76538 l 2.20215,0.44312 q 3.3435,0.67138 4.75342,2.04101 1.40991,1.36963 1.40991,3.89404 0,3.31665 -1.97388,4.94141 -1.96045,1.61133 -6.0022,1.61133 -1.90673,0 -3.8269,-0.36255 -1.92017,-0.36255 -3.84033,-1.07422 l 0,-4.36401 q 1.92016,1.02051 3.70605,1.54419 1.79932,0.51025 3.46436,0.51025 1.69189,0 2.59155,-0.56396 0.89966,-0.56397 0.89966,-1.61133 0,-0.93994 -0.61768,-1.4502 -0.60425,-0.51025 -2.43042,-0.91308 l -2.00073,-0.44312 q -3.00781,-0.64453 -4.4043,-2.05444 -1.38305,-1.40991 -1.38305,-3.80005 0,-2.99439 1.93359,-4.60571 1.93359,-1.61133 5.55908,-1.61133 1.65161,0 3.39722,0.25512 1.7456,0.2417 3.61206,0.73853 z"
       style="font-style:normal;font-variant:normal;font-weight:bold;font-stretch:normal;font-size:27.5px;font-family:sans-serif;-inkscape-font-specification:'sans-serif Bold'"
       id="path4287" />
  </g>
  <ellipse
     ry="28.968311"
     rx="28.30994"
     cy="292.7034"
     cx="56.960266"
     id="ellipse4210"
     style="fill:#a6a7a7;fill-opacity:1;stroke:#000000;stroke-width:3.5718503;stroke-linejoin:miter;stroke-miterlimit:10;stroke-dasharray:none;stroke-opacity:1" />
  <g
     style="font-style:normal;font-weight:normal;font-size:40px;line-height:125%;font-family:sans-serif;letter-spacing:0px;word-spacing:0px;fill:#ffffff;fill-opacity:1;stroke:none;stroke-width:1px;stroke-linecap:butt;stroke-linejoin:miter;stroke-opacity:1"
     id="text4212">
    <path
       d="m 53.763958,284.34622 0,4.24317 q -1.651611,-0.73853 -3.222656,-1.11451 -1.571045,-0.37597 -2.96753,-0.37597 -1.853027,0 -2.739257,0.51025 -0.886231,0.51026 -0.886231,1.58447 0,0.80567 0.59082,1.26221 0.604249,0.44312 2.175293,0.76538 l 2.202149,0.44312 q 3.343506,0.67138 4.753418,2.04101 1.409912,1.36963 1.409912,3.89405 0,3.31665 -1.973877,4.9414 -1.960449,1.61133 -6.002197,1.61133 -1.906739,0 -3.826905,-0.36255 -1.920166,-0.36255 -3.840332,-1.07422 l 0,-4.36401 q 1.920166,1.02051 3.706055,1.54419 1.799316,0.51025 3.464356,0.51025 1.691894,0 2.591552,-0.56396 0.899658,-0.56397 0.899658,-1.61133 0,-0.93994 -0.617675,-1.4502 -0.604248,-0.51025 -2.43042,-0.91308 l -2.000733,-0.44312 q -3.007812,-0.64453 -4.404297,-2.05444 -1.383056,-1.40991 -1.383056,-3.80005 0,-2.99438 1.933594,-4.60571 1.933593,-1.61133 5.559082,-1.61133 1.651611,0 3.397216,0.25513 1.745606,0.2417 3.612061,0.73852 z"
       style="font-style:normal;font-variant:normal;font-weight:bold;font-stretch:normal;font-size:27.5px;font-family:sans-serif;-inkscape-font-specification:'sans-serif Bold';fill:#ffffff;fill-opacity:1"
       id="path4290" />
    <path
       d="m 72.428509,284.34622 0,4.24317 q -1.651612,-0.73853 -3.222656,-1.11451 -1.571045,-0.37597 -2.96753,-0.37597 -1.853027,0 -2.739258,0.51025 -0.88623,0.51026 -0.88623,1.58447 0,0.80567 0.59082,1.26221 0.604248,0.44312 2.175293,0.76538 l 2.202149,0.44312 q 3.343506,0.67138 4.753418,2.04101 1.409912,1.36963 1.409912,3.89405 0,3.31665 -1.973877,4.9414 -1.960449,1.61133 -6.002197,1.61133 -1.906739,0 -3.826905,-0.36255 -1.920166,-0.36255 -3.840332,-1.07422 l 0,-4.36401 q 1.920166,1.02051 3.706055,1.54419 1.799316,0.51025 3.464355,0.51025 1.691895,0 2.591553,-0.56396 0.899658,-0.56397 0.899658,-1.61133 0,-0.93994 -0.617676,-1.4502 -0.604248,-0.51025 -2.430419,-0.91308 l -2.000733,-0.44312 q -3.007812,-0.64453 -4.404297,-2.05444 -1.383056,-1.40991 -1.383056,-3.80005 0,-2.99438 1.933593,-4.60571 1.933594,-1.61133 5.559082,-1.61133 1.651612,0 3.397217,0.25513 1.745606,0.2417 3.612061,0.73852 z"
       style="font-style:normal;font-variant:normal;font-weight:bold;font-stretch:normal;font-size:27.5px;font-family:sans-serif;-inkscape-font-specification:'sans-serif Bold';fill:#ffffff;fill-opacity:1"
       id="path4292" />
  </g>
  <g
     style="font-style:normal;font-weight:normal;font-size:40px;line-height:125%;font-family:sans-serif;letter-spacing:0px;word-spacing:0px;fill:#000000;fill-opacity:1;stroke:none;stroke-width:1px;stroke-linecap:butt;stroke-linejoin:miter;stroke-opacity:1"
     id="text4216">
    <path
       d="m 100.23212,300.23349 2.11914,0 4.04297,5.99609 4.01368,-5.99609 2.11914,0 -5.15625,7.63672 0,6.94336 -1.98243,0 0,-6.94336 -5.15625,-7.63672 z"
       style="font-size:20px"
       id="path4225" />
    <path
       d="m 115.96455,305.13583 q -1.44532,0 -2.28516,1.13282 -0.83984,1.12304 -0.83984,3.08593 0,1.96289 0.83007,3.09571 0.83985,1.12304 2.29493,1.12304 1.43554,0 2.27539,-1.13281 0.83984,-1.13281 0.83984,-3.08594 0,-1.94336 -0.83984,-3.07617 -0.83985,-1.14258 -2.27539,-1.14258 z m 0,-1.52343 q 2.34375,0 3.68164,1.52343 1.33789,1.52344 1.33789,4.21875 0,2.68555 -1.33789,4.21875 -1.33789,1.52344 -3.68164,1.52344 -2.35352,0 -3.69141,-1.52344 -1.32813,-1.5332 -1.32813,-4.21875 0,-2.69531 1.32813,-4.21875 1.33789,-1.52343 3.69141,-1.52343 z"
       style="font-size:20px"
       id="path4227" />
    <path
       d="m 123.76728,310.49716 0,-6.62109 1.79688,0 0,6.55273 q 0,1.55274 0.60546,2.33399 0.60547,0.77148 1.81641,0.77148 1.45508,0 2.29492,-0.92773 0.84961,-0.92774 0.84961,-2.5293 l 0,-6.20117 1.79688,0 0,10.9375 -1.79688,0 0,-1.67969 q -0.6543,0.99609 -1.52344,1.48438 -0.85937,0.47851 -2.00195,0.47851 -1.88476,0 -2.86133,-1.17187 -0.97656,-1.17188 -0.97656,-3.42774 z"
       style="font-size:20px"
       id="path4229" />
    <path
       d="m 142.98603,305.55576 q -0.30273,-0.17579 -0.66406,-0.25391 -0.35156,-0.0879 -0.78125,-0.0879 -1.52344,0 -2.34375,0.99609 -0.81055,0.98633 -0.81055,2.8418 l 0,5.76172 -1.80664,0 0,-10.9375 1.80664,0 0,1.69922 q 0.56641,-0.9961 1.47461,-1.47461 0.9082,-0.48828 2.20703,-0.48828 0.18555,0 0.41016,0.0293 0.22461,0.0195 0.49804,0.0684 l 0.01,1.84571 z"
       style="font-size:20px"
       id="path4231" />
    <path
       d="m 150.21259,303.87607 1.79688,0 2.24609,8.53515 2.23633,-8.53515 2.11914,0 2.24609,8.53515 2.23633,-8.53515 1.79688,0 -2.86133,10.9375 -2.11914,0 -2.35352,-8.96485 -2.36328,8.96485 -2.11914,0 -2.86133,-10.9375 z"
       style="font-size:20px"
       id="path4233" />
    <path
       d="m 167.6247,303.87607 1.79688,0 0,10.9375 -1.79688,0 0,-10.9375 z m 0,-4.25781 1.79688,0 0,2.27539 -1.79688,0 0,-2.27539 z"
       style="font-size:20px"
       id="path4235" />
    <path
       d="m 178.70869,299.61826 0,1.49414 -1.71875,0 q -0.9668,0 -1.34766,0.39062 -0.37109,0.39063 -0.37109,1.40625 l 0,0.9668 2.95898,0 0,1.39648 -2.95898,0 0,9.54102 -1.80664,0 0,-9.54102 -1.71875,0 0,-1.39648 1.71875,0 0,-0.76172 q 0,-1.82617 0.84961,-2.65625 0.8496,-0.83984 2.69531,-0.83984 l 1.69922,0 z"
       style="font-size:20px"
       id="path4237" />
    <path
       d="m 189.59736,308.8956 0,0.87891 -8.26172,0 q 0.11719,1.85546 1.11328,2.83203 1.00586,0.96679 2.79297,0.96679 1.03516,0 2.00195,-0.2539 0.97657,-0.25391 1.9336,-0.76172 l 0,1.69922 q -0.9668,0.41015 -1.98243,0.625 -1.01562,0.21484 -2.06054,0.21484 -2.61719,0 -4.15039,-1.52344 -1.52344,-1.52343 -1.52344,-4.12109 0,-2.68555 1.44531,-4.25781 1.45508,-1.58203 3.91602,-1.58203 2.20703,0 3.48633,1.42578 1.28906,1.41601 1.28906,3.85742 z m -1.79688,-0.52734 q -0.0195,-1.47461 -0.83007,-2.35352 -0.80079,-0.87891 -2.12891,-0.87891 -1.50391,0 -2.41211,0.84961 -0.89844,0.84961 -1.03516,2.39258 l 6.40625,-0.01 z"
       style="font-size:20px"
       id="path4239" />
    <path
       d="m 205.84736,304.19833 0,1.69922 q -0.76172,-0.39062 -1.58203,-0.58594 -0.82032,-0.19531 -1.69922,-0.19531 -1.33789,0 -2.01172,0.41016 -0.66406,0.41015 -0.66406,1.23047 0,0.625 0.47851,0.98633 0.47852,0.35156 1.92383,0.67382 l 0.61524,0.13672 q 1.91406,0.41016 2.71484,1.16211 0.81055,0.74219 0.81055,2.08008 0,1.52344 -1.21094,2.41211 -1.20117,0.88867 -3.31055,0.88867 -0.8789,0 -1.83594,-0.17578 -0.94726,-0.16602 -2.00195,-0.50781 l 0,-1.85547 q 0.99609,0.51758 1.96289,0.78125 0.9668,0.2539 1.91406,0.2539 1.26954,0 1.95313,-0.42968 0.68359,-0.43946 0.68359,-1.23047 0,-0.73242 -0.49804,-1.12305 -0.48829,-0.39062 -2.15821,-0.75195 l -0.625,-0.14649 q -1.66992,-0.35156 -2.41211,-1.07421 -0.74218,-0.73243 -0.74218,-2.00196 0,-1.54297 1.09375,-2.38281 1.09375,-0.83984 3.10546,-0.83984 0.9961,0 1.875,0.14648 0.87891,0.14648 1.6211,0.43945 z"
       style="font-size:20px"
       id="path4241" />
    <path
       d="m 217.17548,304.29599 0,1.67969 q -0.76172,-0.41992 -1.5332,-0.625 -0.76172,-0.21485 -1.54297,-0.21485 -1.74805,0 -2.71484,1.11328 -0.9668,1.10352 -0.9668,3.10547 0,2.00196 0.9668,3.11524 0.96679,1.10351 2.71484,1.10351 0.78125,0 1.54297,-0.20507 0.77148,-0.21485 1.5332,-0.63477 l 0,1.66016 q -0.75195,0.35156 -1.5625,0.52734 -0.80078,0.17578 -1.70898,0.17578 -2.4707,0 -3.92578,-1.55273 -1.45508,-1.55274 -1.45508,-4.18946 0,-2.67578 1.46484,-4.20898 1.47461,-1.5332 4.03321,-1.5332 0.83007,0 1.62109,0.17578 0.79102,0.16601 1.5332,0.50781 z"
       style="font-size:20px"
       id="path4243" />
    <path
       d="m 225.25166,309.31552 q -2.17774,0 -3.01758,0.49805 -0.83985,0.49804 -0.83985,1.69922 0,0.95703 0.625,1.52343 0.63477,0.55664 1.71875,0.55664 1.49414,0 2.39258,-1.05468 0.9082,-1.06446 0.9082,-2.82227 l 0,-0.40039 -1.7871,0 z m 3.58398,-0.74219 0,6.24024 -1.79688,0 0,-1.66016 q -0.61523,0.9961 -1.5332,1.47461 -0.91797,0.46875 -2.24609,0.46875 -1.67969,0 -2.67578,-0.9375 -0.98633,-0.94726 -0.98633,-2.5293 0,-1.8457 1.23047,-2.7832 1.24023,-0.9375 3.6914,-0.9375 l 2.51953,0 0,-0.17578 q 0,-1.24023 -0.82031,-1.91406 -0.81054,-0.6836 -2.28515,-0.6836 -0.9375,0 -1.82618,0.22461 -0.88867,0.22461 -1.70898,0.67383 l 0,-1.66016 q 0.98633,-0.38085 1.91406,-0.5664 0.92774,-0.19531 1.80664,-0.19531 2.37305,0 3.54492,1.23046 1.17188,1.23047 1.17188,3.73047 z"
       style="font-size:20px"
       id="path4245" />
    <path
       d="m 238.92353,305.55576 q -0.30273,-0.17579 -0.66406,-0.25391 -0.35156,-0.0879 -0.78125,-0.0879 -1.52344,0 -2.34375,0.99609 -0.81055,0.98633 -0.81055,2.8418 l 0,5.76172 -1.80664,0 0,-10.9375 1.80664,0 0,1.69922 q 0.56641,-0.9961 1.47461,-1.47461 0.9082,-0.48828 2.20703,-0.48828 0.18555,0 0.41016,0.0293 0.22461,0.0195 0.49804,0.0684 l 0.01,1.84571 z"
       style="font-size:20px"
       id="path4247" />
    <path
       d="m 249.77314,308.8956 0,0.87891 -8.26172,0 q 0.11719,1.85546 1.11328,2.83203 1.00586,0.96679 2.79297,0.96679 1.03516,0 2.00195,-0.2539 0.97657,-0.25391 1.9336,-0.76172 l 0,1.69922 q -0.9668,0.41015 -1.98242,0.625 -1.01563,0.21484 -2.06055,0.21484 -2.61719,0 -4.15039,-1.52344 -1.52344,-1.52343 -1.52344,-4.12109 0,-2.68555 1.44531,-4.25781 1.45508,-1.58203 3.91602,-1.58203 2.20703,0 3.48633,1.42578 1.28906,1.41601 1.28906,3.85742 z m -1.79688,-0.52734 q -0.0195,-1.47461 -0.83007,-2.35352 -0.80078,-0.87891 -2.12891,-0.87891 -1.50391,0 -2.41211,0.84961 -0.89844,0.84961 -1.03516,2.39258 l 6.40625,-0.01 z"
       style="font-size:20px"
       id="path4249" />
    <path
       d="m 259.67548,304.19833 0,1.69922 q -0.76172,-0.39062 -1.58203,-0.58594 -0.82031,-0.19531 -1.69922,-0.19531 -1.33789,0 -2.01172,0.41016 -0.66406,0.41015 -0.66406,1.23047 0,0.625 0.47852,0.98633 0.47851,0.35156 1.92383,0.67382 l 0.61523,0.13672 q 1.91406,0.41016 2.71484,1.16211 0.81055,0.74219 0.81055,2.08008 0,1.52344 -1.21094,2.41211 -1.20117,0.88867 -3.31054,0.88867 -0.87891,0 -1.83594,-0.17578 -0.94727,-0.16602 -2.00195,-0.50781 l 0,-1.85547 q 0.99609,0.51758 1.96289,0.78125 0.96679,0.2539 1.91406,0.2539 1.26953,0 1.95312,-0.42968 0.6836,-0.43946 0.6836,-1.23047 0,-0.73242 -0.49805,-1.12305 -0.48828,-0.39062 -2.1582,-0.75195 l -0.625,-0.14649 q -1.66992,-0.35156 -2.41211,-1.07421 -0.74219,-0.73243 -0.74219,-2.00196 0,-1.54297 1.09375,-2.38281 1.09375,-0.83984 3.10547,-0.83984 0.99609,0 1.875,0.14648 0.87891,0.14648 1.62109,0.43945 z"
       style="font-size:20px"
       id="path4251" />
    <path
       d="m 278.01533,305.97568 q 0.67383,-1.21094 1.61133,-1.78711 0.9375,-0.57617 2.20703,-0.57617 1.70898,0 2.63672,1.20117 0.92773,1.1914 0.92773,3.39844 l 0,6.60156 -1.80664,0 0,-6.54297 q 0,-1.57227 -0.55664,-2.33399 -0.55664,-0.76171 -1.69922,-0.76171 -1.39648,0 -2.20703,0.92773 -0.81055,0.92773 -0.81055,2.5293 l 0,6.18164 -1.80664,0 0,-6.54297 q 0,-1.58203 -0.55664,-2.33399 -0.55664,-0.76171 -1.71875,-0.76171 -1.37695,0 -2.1875,0.9375 -0.81055,0.92773 -0.81055,2.51953 l 0,6.18164 -1.80664,0 0,-10.9375 1.80664,0 0,1.69922 q 0.61524,-1.00586 1.47461,-1.48438 0.85938,-0.47851 2.04102,-0.47851 1.1914,0 2.02148,0.60546 0.83985,0.60547 1.24024,1.75782 z"
       style="font-size:20px"
       id="path4253" />
    <path
       d="m 298.3083,308.8956 0,0.87891 -8.26172,0 q 0.11718,1.85546 1.11328,2.83203 1.00586,0.96679 2.79297,0.96679 1.03515,0 2.00195,-0.2539 0.97656,-0.25391 1.93359,-0.76172 l 0,1.69922 q -0.96679,0.41015 -1.98242,0.625 -1.01562,0.21484 -2.06054,0.21484 -2.61719,0 -4.1504,-1.52344 -1.52343,-1.52343 -1.52343,-4.12109 0,-2.68555 1.44531,-4.25781 1.45508,-1.58203 3.91602,-1.58203 2.20703,0 3.48632,1.42578 1.28907,1.41601 1.28907,3.85742 z m -1.79688,-0.52734 q -0.0195,-1.47461 -0.83008,-2.35352 -0.80078,-0.87891 -2.1289,-0.87891 -1.50391,0 -2.41211,0.84961 -0.89844,0.84961 -1.03516,2.39258 l 6.40625,-0.01 z"
       style="font-size:20px"
       id="path4255" />
    <path
       d="m 301.47236,312.3331 2.06055,0 0,2.48047 -2.06055,0 0,-2.48047 z"
       style="font-size:20px"
       id="path4257" />
    <path
       d="m 307.83955,312.3331 2.06054,0 0,2.48047 -2.06054,0 0,-2.48047 z"
       style="font-size:20px"
       id="path4259" />
    <path
       d="m 314.20673,312.3331 2.06055,0 0,2.48047 -2.06055,0 0,-2.48047 z"
       style="font-size:20px"
       id="path4261" />
  </g>
  <g
     style="font-style:normal;font-weight:normal;font-size:40px;line-height:125%;font-family:sans-serif;letter-spacing:0px;word-spacing:0px;fill:#000000;fill-opacity:1;stroke:none;stroke-width:1px;stroke-linecap:butt;stroke-linejoin:miter;stroke-opacity:1"
     id="text4220">
    <path
       d="m 254.11543,264.84366 2.93946,0 3.7207,9.92187 3.74023,-9.92187 2.93946,0 0,14.58008 -1.92383,0 0,-12.80274 -3.75977,10 -1.98242,0 -3.75976,-10 0,12.80274 -1.91407,0 0,-14.58008 z"
       style="font-size:20px"
       id="path4264" />
    <path
       d="m 275.50215,269.746 q -1.44531,0 -2.28515,1.13281 -0.83985,1.12305 -0.83985,3.08594 0,1.96289 0.83008,3.09571 0.83984,1.12304 2.29492,1.12304 1.43555,0 2.27539,-1.13281 0.83985,-1.13281 0.83985,-3.08594 0,-1.94336 -0.83985,-3.07617 -0.83984,-1.14258 -2.27539,-1.14258 z m 0,-1.52344 q 2.34375,0 3.68164,1.52344 1.33789,1.52344 1.33789,4.21875 0,2.68555 -1.33789,4.21875 -1.33789,1.52344 -3.68164,1.52344 -2.35351,0 -3.6914,-1.52344 -1.32813,-1.5332 -1.32813,-4.21875 0,-2.69531 1.32813,-4.21875 1.33789,-1.52344 3.6914,-1.52344 z"
       style="font-size:20px"
       id="path4266" />
    <path
       d="m 292.58223,272.82217 0,6.60157 -1.79688,0 0,-6.54297 q 0,-1.55274 -0.60546,-2.32422 -0.60547,-0.77149 -1.81641,-0.77149 -1.45508,0 -2.29492,0.92774 -0.83985,0.92773 -0.83985,2.5293 l 0,6.18164 -1.80664,0 0,-10.9375 1.80664,0 0,1.69922 q 0.64454,-0.98633 1.51368,-1.47461 0.8789,-0.48829 2.02148,-0.48829 1.88477,0 2.85156,1.17188 0.9668,1.16211 0.9668,3.42773 z"
       style="font-size:20px"
       id="path4268" />
    <path
       d="m 303.38301,270.14639 0,-5.91797 1.79688,0 0,15.19532 -1.79688,0 0,-1.64063 q -0.56641,0.97656 -1.43555,1.45508 -0.85937,0.46875 -2.07031,0.46875 -1.98242,0 -3.23242,-1.58203 -1.24023,-1.58203 -1.24023,-4.16016 0,-2.57812 1.24023,-4.16015 1.25,-1.58204 3.23242,-1.58204 1.21094,0 2.07031,0.47852 0.86914,0.46875 1.43555,1.44531 z m -6.12305,3.81836 q 0,1.98242 0.81055,3.11524 0.82031,1.12304 2.24609,1.12304 1.42579,0 2.2461,-1.12304 0.82031,-1.13282 0.82031,-3.11524 0,-1.98242 -0.82031,-3.10547 -0.82031,-1.13281 -2.2461,-1.13281 -1.42578,0 -2.24609,1.13281 -0.81055,1.12305 -0.81055,3.10547 z"
       style="font-size:20px"
       id="path4270" />
    <path
       d="m 313.85176,273.92569 q -2.17773,0 -3.01758,0.49805 -0.83984,0.49804 -0.83984,1.69922 0,0.95703 0.625,1.52343 0.63476,0.55664 1.71875,0.55664 1.49414,0 2.39258,-1.05468 0.9082,-1.06446 0.9082,-2.82227 l 0,-0.40039 -1.78711,0 z m 3.58399,-0.74219 0,6.24024 -1.79688,0 0,-1.66016 q -0.61523,0.99609 -1.5332,1.47461 -0.91797,0.46875 -2.2461,0.46875 -1.67968,0 -2.67578,-0.9375 -0.98633,-0.94727 -0.98633,-2.5293 0,-1.8457 1.23047,-2.7832 1.24024,-0.9375 3.69141,-0.9375 l 2.51953,0 0,-0.17578 q 0,-1.24024 -0.82031,-1.91406 -0.81055,-0.6836 -2.28516,-0.6836 -0.9375,0 -1.82617,0.22461 -0.88867,0.22461 -1.70898,0.67383 l 0,-1.66016 q 0.98632,-0.38086 1.91406,-0.5664 0.92773,-0.19532 1.80664,-0.19532 2.37305,0 3.54492,1.23047 1.17188,1.23047 1.17188,3.73047 z"
       style="font-size:20px"
       id="path4272" />
    <path
       d="m 325.73653,280.43936 q -0.76172,1.95313 -1.48438,2.54883 -0.72265,0.5957 -1.93359,0.5957 l -1.43555,0 0,-1.5039 1.05469,0 q 0.74219,0 1.15234,-0.35157 0.41016,-0.35156 0.90821,-1.66015 l 0.32226,-0.82031 -4.42383,-10.76172 1.9043,0 3.41797,8.55468 3.41797,-8.55468 1.90429,0 -4.80468,11.95312 z"
       style="font-size:20px"
       id="path4274" />
  </g>
</svg>
